<svg xmlns="http://www.w3.org/2000/svg" viewBox="0 0 439 439"><defs><style>.cls-1{fill:#31ffa8;}</style></defs><title>InstantKhata</title><g id="Layer_2" data-name="Layer 2"><g id="Layer_1-2" data-name="Layer 1"><path class="cls-1" d="M417.31,167.51,271.51,21.43c-28.57-28.57-75.11-28.57-104,0L21.43,167.51c-28.57,28.57-28.57,75.11,0,104l146.1,146.08c28.57,28.57,75.11,28.57,104,0l146.1-146.08C446.18,242.62,446.18,196.08,417.31,167.51ZM339,197.85,216.43,366.32a15.51,15.51,0,0,1-12.38,6.19,15.21,15.21,0,0,1-15.31-15.32V265.3H112.15A15.21,15.21,0,0,1,96.84,250a14.72,14.72,0,0,1,2.94-9.13L222.32,72.38a15.74,15.74,0,0,1,21.5-3.53A15.47,15.47,0,0,1,250,81.22v91.89h76.58a15.22,15.22,0,0,1,15.32,15.32A17,17,0,0,1,339,197.85Z"/></g></g></svg>